<svg width="664" height="477" viewBox="0 0 664 477" fill="none" xmlns="http://www.w3.org/2000/svg">
<g opacity="0.02">
<mask id="mask0_17_557" style="mask-type:luminance" maskUnits="userSpaceOnUse" x="-231" y="0" width="896" height="477">
<path d="M-231 476.212L664.006 476.212L664.006 0L-231 -7.82439e-05L-231 476.212Z" fill="white"/>
</mask>
<g mask="url(#mask0_17_557)">
<g style="mix-blend-mode:screen" opacity="0.1">
<path d="M-127.993 220.099L-127.993 225.521L-123.751 223.075L-123.751 217.653L-127.993 220.099ZM-237.425 220.44L-239.416 221.589L-237.425 222.737L-237.425 225.524L-235.305 224.298L-233.184 225.524L-233.184 220.102L-237.425 217.657L-237.425 220.443L-237.425 220.44ZM40.3973 314.985L40.3973 312.206L38.2766 313.425L36.1559 312.199L36.1559 314.985L34.1649 316.134L36.1559 317.283L36.1559 320.07L38.2766 318.843L40.3973 320.07L40.3973 317.283L42.3883 316.134L40.3973 314.985ZM-123.751 409.535L-123.751 406.744L-127.993 409.19L-127.993 414.612L-125.872 413.385L-123.751 414.612L-123.751 411.825L-121.76 410.676L-123.751 409.531L-123.751 409.535ZM478.131 377.619L478.131 221.325L473.889 221.325L473.889 312.199L423.415 283.07L423.415 220.099L368.698 188.524L368.698 130.449L420.234 160.189L422.354 156.516L368.698 125.549L311.861 92.7519L257.145 124.33L202.429 92.7519L147.713 124.33L92.9966 92.7519L38.2804 124.33L-16.4359 92.7519L-71.1521 124.33L-125.868 92.7519L-180.585 124.33L-233.035 94.0638L-235.301 92.7556L-237.277 93.897L-290.017 124.334L-344.733 92.7556L-399.449 124.334L-454.166 92.7556L-511.003 125.553L-511.003 268.691L-506.761 268.691L-506.761 191.159L-454.166 160.808L-452.045 162.034L-401.57 191.163L-401.57 254.13L-349.134 284.389L-349.431 284.56L-397.325 312.202L-401.566 314.648L-401.566 319.733L-395.334 316.138L-346.85 288.158L-344.73 286.931L-342.609 288.158L-294.125 316.138L-287.893 319.733L-287.893 314.648L-292.134 312.202L-340.028 284.56L-340.325 284.389L-290.01 255.357L-237.414 285.709L-237.414 346.23L-239.987 347.712L-287.889 375.355L-287.889 375.166L-290.01 376.396L-292.13 375.166L-292.13 375.355L-340.032 347.712L-344.726 345.003L-349.42 347.712L-399.739 376.752L-403.683 379.027L-397.321 382.7L-348.837 410.684L-346.847 411.832L-346.847 477.246L-343.665 475.411L-302.626 451.727L-287.885 443.222L-287.885 380.254L-235.29 349.903L-233.169 351.129L-184.974 378.939L-233.169 406.752L-237.41 409.197L-237.41 472.354L-239.828 473.747L-287.885 501.483L-291.066 503.317L-288.946 506.99L-286.057 505.322L-237.41 477.249L-235.29 476.023L-233.169 477.249L-184.526 505.322L-180.573 507.601L-178.453 506.374L-176.621 505.318L-127.978 477.246L-125.857 476.019L-123.736 477.246L-75.0932 505.318L-71.141 507.597L-67.1925 505.318L-18.5455 477.242L-12.1833 473.569L25.6746 451.723L40.4159 443.218L40.4159 382.696L90.8906 411.829L90.8906 475.137L90.7534 533.32L90.746 538.205L90.7275 545.016L94.9689 545.024L94.9875 538.371L95.1247 477.238L95.1321 477.238L143.779 505.318L147.728 507.597L151.68 505.318L200.323 477.242L204.565 474.796L204.565 409.19L200.323 406.744L152.429 379.102L152.132 378.931L202.448 349.899L255.043 380.251L255.043 441.995L259.284 441.995L259.284 380.247L261.553 378.927L259.284 377.619L259.284 317.283L309.759 288.151L309.759 348.672L362.195 378.931L309.759 409.19L309.759 477.242L312.94 475.408L366.596 444.445L368.717 445.671L420.252 475.408L423.433 477.242L476.029 507.594L532.866 474.796L532.866 409.194L478.149 377.616L478.131 377.619ZM-394.919 379.194L-395.215 379.024L-344.741 349.895L-294.425 378.927L-294.722 379.098L-342.616 406.74L-344.896 408.06L-346.858 406.929L-394.915 379.194L-394.919 379.194ZM-292.141 440.772L-294.715 442.254L-304.758 448.05L-342.616 469.897L-342.616 411.825L-340.625 410.676L-292.141 382.693L-292.141 440.768L-292.141 440.772ZM423.415 287.969L473.889 317.098L473.889 375.355L423.415 346.226L423.415 287.969ZM368.698 193.42L419.173 222.552L419.173 280.809L368.698 251.681L368.698 193.42ZM368.698 317.283L419.173 288.151L419.173 346.226L368.698 375.355L368.698 317.283ZM366.578 255.353L416.893 284.386L366.578 313.425L316.262 284.386L364.943 256.295L366.574 255.353L366.578 255.353ZM313.978 98.8741L364.453 128.006L364.453 186.264L313.978 157.135L313.978 98.8741ZM259.262 128.003L309.737 98.8704L309.737 157.131L259.262 186.26L259.262 128.003ZM145.588 375.355L95.1136 346.226L92.9928 345L88.299 347.709L40.3973 375.351L40.3973 317.279L42.3883 316.13L90.8721 288.151L92.9928 286.924L95.1136 288.151L145.588 317.279L145.588 375.351L145.588 375.355ZM-18.5603 409.19L-18.5603 469.897L-66.462 442.254L-69.0351 440.772L-69.0351 380.25L-16.4396 349.899L33.8758 378.931L33.5829 379.102L-14.3189 406.744L-18.5603 409.19ZM-127.993 469.901L-175.895 442.258L-178.468 440.776L-178.468 380.25L-176.198 378.931L-178.468 377.623L-178.468 317.287L-176.477 316.138L-127.993 288.154L-127.993 347.453L-125.872 347.453L-126.932 349.287L-75.5641 378.935L-75.857 379.105L-123.751 406.748L-127.993 409.194L-127.993 469.901ZM-230.904 284.385L-180.588 255.353L-130.273 284.386L-130.57 284.556L-178.464 312.199L-180.585 313.425L-182.705 312.199L-230.607 284.556L-230.9 284.385L-230.904 284.385ZM-73.2765 193.605L-73.2765 251.681L-123.751 280.809L-123.751 222.737L-73.2765 193.605ZM143.308 189.84L95.1136 217.653L92.9928 218.88L90.8721 217.653L42.9778 190.01L42.6812 189.84L92.9966 160.808L95.1173 162.034L143.312 189.844L143.308 189.84ZM204.546 162.034L252.741 189.844L204.546 217.657L202.425 218.883L200.305 217.657L152.41 190.014L152.114 189.844L202.429 160.811L204.55 162.038L204.546 162.034ZM200.305 280.809L152.403 253.167L149.83 251.684L149.83 193.609L198.317 221.592L200.308 222.737L200.308 280.813L200.305 280.809ZM88.2953 284.556L40.4826 312.154L40.3973 312.206L38.2766 313.425L36.1559 312.199L15.3973 300.217L-12.0387 284.386L36.1559 256.573L37.7724 255.639L40.3973 254.127L40.3974 193.605L88.8812 221.589L90.8721 222.737L90.8721 283.07L88.2916 284.56L88.2953 284.556ZM36.1559 375.355L-11.7458 347.712L-14.3189 346.23L-14.3189 288.154L34.1649 316.138L36.1559 317.287L36.1559 375.359L36.1559 375.355ZM-123.751 285.705L-71.1558 255.353L-20.8405 284.386L-21.137 284.556L-69.0314 312.199L-73.2728 314.644L-73.2728 375.351L-121.175 347.709L-123.748 346.226L-123.748 285.705L-123.751 285.705ZM-20.5513 221.589L-18.5603 222.734L-18.5603 280.809L-66.462 253.17L-69.0351 251.681L-69.0351 193.605L-20.5513 221.589ZM36.1559 193.605L36.1559 251.681L-14.3189 280.809L-14.3189 222.734L36.1559 193.605ZM-69.0351 317.283L-18.5603 288.151L-18.5603 346.226L-69.0351 375.355L-69.0351 317.283ZM95.1136 280.809L95.1136 222.737L145.588 193.605L145.588 251.681L95.1136 280.809ZM33.8758 189.84L33.5791 190.01L-14.3152 217.653L-16.4359 218.879L-18.5566 217.653L-66.4509 190.01L-66.7475 189.84L-16.4322 160.808L33.8831 189.84L33.8758 189.84ZM-75.8533 442.258L-123.755 469.901L-123.755 411.829L-121.764 410.68L-73.2802 382.696L-73.2802 440.772L-75.8533 442.254L-75.8533 442.258ZM97.694 284.556L97.3974 284.386L147.713 255.353L198.028 284.386L197.735 284.556L147.713 313.425L97.6978 284.556L97.694 284.556ZM252.607 253.07L204.546 280.806L204.546 222.73L206.537 221.585L255.021 193.601L255.021 251.677L252.607 253.067L252.607 253.07ZM204.546 98.8778L255.021 128.006L255.021 186.264L204.546 157.135L204.546 98.8778ZM149.83 128.003L200.305 98.8741L200.305 157.131L149.83 186.26L149.83 128.003ZM95.1136 98.8741L143.761 126.95L145.588 128.006L145.588 186.264L97.5272 158.528L95.1136 157.139L95.1136 98.8778L95.1136 98.8741ZM90.8721 98.8741L90.8721 157.135L88.4585 158.525L40.3974 186.26L40.3974 128.003L42.2252 126.947L90.8721 98.8704L90.8721 98.8741ZM-14.3189 98.8778L34.3281 126.95L36.1559 128.006L36.1559 186.264L-11.9053 158.528L-14.3189 157.139L-14.3189 98.8815L-14.3189 98.8778ZM-18.5603 98.8778L-18.5603 157.135L-20.9739 158.525L-69.0351 186.26L-69.0351 128.003L-67.2072 126.947L-18.5603 98.8741L-18.5603 98.8778ZM-123.751 98.8741L-75.1044 126.95L-73.2765 128.006L-73.2765 186.264L-121.338 158.528L-123.751 157.139L-123.751 98.8778L-123.751 98.8741ZM-178.468 128.003L-127.993 98.8704L-127.993 157.131L-178.468 186.26L-178.468 128.003ZM-233.184 98.8741L-233.047 98.9519L-182.709 128.006L-182.709 186.264L-233.18 157.135L-233.184 157.135L-233.184 98.8741ZM-235.305 160.808L-233.184 162.034L-182.709 191.163L-182.709 193.624L-180.588 192.393L-178.468 193.624L-178.468 191.163L-125.872 160.811L-75.5567 189.844L-75.8533 190.014L-123.748 217.657L-127.989 220.102L-127.989 280.809L-175.891 253.167L-180.585 250.458L-185.278 253.167L-233.18 280.809L-233.18 220.102L-237.422 217.657L-285.316 190.014L-285.612 189.844L-235.297 160.811L-235.305 160.808ZM-237.425 98.8741L-237.425 157.135L-239.839 158.525L-287.9 186.26L-287.9 128.003L-286.072 126.946L-237.425 98.8704L-237.425 98.8741ZM-342.62 98.8778L-293.973 126.95L-292.145 128.006L-292.145 186.264L-340.206 158.528L-342.62 157.139L-342.62 98.8815L-342.62 98.8778ZM-294.722 190.01L-342.616 217.653L-344.737 218.879L-346.858 217.653L-395.052 189.84L-346.858 162.031L-344.737 160.804L-294.422 189.836L-294.718 190.007L-294.722 190.01ZM-346.861 280.809L-397.336 251.681L-397.336 193.605L-346.861 222.734L-346.861 280.809ZM-397.336 128.003L-346.861 98.8741L-346.861 157.131L-397.336 186.26L-397.336 128.003ZM-506.769 128.003L-456.294 98.8704L-456.294 157.131L-506.769 186.26L-506.769 128.003ZM-452.052 157.135L-452.052 98.8741L-401.578 128.006L-401.578 186.264L-452.052 157.135ZM-292.141 251.681L-294.714 253.163L-342.616 280.806L-342.616 222.73L-340.625 221.585L-292.141 193.601L-292.141 251.677L-292.141 251.681ZM-287.9 193.605L-239.416 221.589L-237.425 222.737L-237.425 280.809L-285.327 253.167L-287.9 251.684L-287.9 193.609L-287.9 193.605ZM-230.611 347.712L-233.184 346.23L-233.184 288.154L-184.7 316.138L-182.709 317.287L-182.709 375.359L-230.611 347.716L-230.611 347.712ZM-233.184 411.829L-231.193 410.68L-182.709 382.696L-182.709 440.772L-185.282 442.254L-233.184 469.897L-233.184 411.825L-233.184 411.829ZM-178.468 501.479L-180.588 502.705L-182.709 501.479L-230.766 473.744L-231.063 473.573L-180.588 444.445L-130.113 473.573L-130.41 473.744L-178.468 501.479ZM-69.0351 501.479L-71.1558 502.705L-73.2765 501.479L-121.334 473.744L-121.631 473.573L-71.1558 444.445L-20.6811 473.573L-20.9777 473.744L-69.0351 501.479ZM36.1558 440.772L23.5353 448.05L-14.3225 469.897L-14.3225 411.825L36.1522 382.693L36.1522 440.768L36.1558 440.772ZM42.9704 379.102L42.6775 378.931L92.9928 349.899L143.308 378.931L143.012 379.102L95.1172 406.744L92.9965 407.971L90.8758 406.744L42.9741 379.102L42.9704 379.102ZM95.1136 411.829L97.1045 410.68L145.588 382.696L145.588 440.772L143.015 442.254L95.1135 469.897L95.1136 411.825L95.1136 411.829ZM149.83 501.479L147.709 502.706L145.588 501.479L97.5309 473.744L97.2343 473.573L147.709 444.445L198.184 473.573L197.887 473.744L149.83 501.479ZM198.317 410.68L200.308 411.829L200.308 469.901L152.407 442.258L149.833 440.776L149.833 382.7L198.321 410.684L198.317 410.68ZM200.305 346.226L197.732 347.709L149.83 375.351L149.83 317.279L151.821 316.131L200.308 288.147L200.308 346.223L200.305 346.226ZM255.021 375.355L207.119 347.712L204.546 346.23L204.546 288.154L253.03 316.138L255.021 317.287L255.021 375.359L255.021 375.355ZM257.141 313.425L207.119 284.556L206.826 284.386L257.141 255.353L257.434 255.524L265.176 259.989L307.457 284.389L257.141 313.429L257.141 313.425ZM309.737 280.617L309.737 280.806L259.262 251.677L259.262 191.155L311.858 160.804L362.173 189.836L309.737 220.095L309.737 225.18L364.453 193.601L364.453 251.677L356.678 256.161L313.978 280.802L313.978 280.613L311.858 281.843L309.737 280.613L309.737 280.617ZM364.457 440.772L313.982 469.901L313.982 411.829L364.457 382.696L364.457 440.772ZM364.457 375.355L313.982 346.226L313.982 288.151L364.457 317.283L364.457 375.355ZM419.173 469.901L368.698 440.772L368.698 382.696L419.173 411.825L419.173 469.901ZM421.294 407.971L370.979 378.931L421.294 349.899L471.609 378.931L421.294 407.971ZM423.415 411.825L473.889 382.696L473.889 440.772L423.415 469.901L423.415 411.825ZM476.01 502.702L425.535 473.57L476.01 444.441L526.485 473.57L476.01 502.702ZM528.606 469.901L478.131 440.772L478.131 382.515L528.606 411.643L528.606 469.901Z" fill="#292929"/>
</g>
<path d="M636.069 413.27L585.383 442.525L583.262 441.298L532.788 412.166L532.788 353.749L528.435 351.241C528.42 351.344 528.405 351.452 528.387 351.556L528.546 351.648L528.546 409.72L478.071 380.592L478.072 322.516L478.613 322.831C478.624 322.742 478.635 322.653 478.646 322.564C478.646 322.564 478.646 322.56 478.646 322.557L473.559 319.625C473.218 319.744 472.877 319.855 472.529 319.948C470.749 320.426 468.999 320.937 467.249 321.419L421.231 347.979L368.635 317.624L368.635 259.163L364.461 256.758C364.442 256.94 364.42 257.121 364.394 257.303L364.394 315.178L315.91 287.195L313.919 286.046L313.919 227.974L314.431 228.267C314.434 228.156 314.446 228.044 314.453 227.937L310.004 225.372C309.904 225.699 309.796 226.021 309.678 226.34L309.678 286.046L307.687 287.195L259.199 315.178L259.199 255.88L257.078 255.88L258.139 254.045L206.771 224.398L207.06 224.231L254.961 196.585L257.497 195.121L259.203 194.139L259.203 188.717L257.082 189.944L254.961 188.717L254.961 191.504L253.089 192.586L252.971 192.653L204.483 220.636L204.483 164.573L200.82 162.464L200.82 162.824C200.82 164.336 200.616 165.781 200.242 167.145L200.242 223.082L147.646 253.437L97.3307 224.398L97.6236 224.227L145.525 196.585L149.767 194.139L149.767 133.432L150.419 133.81C150.408 133.673 150.393 133.536 150.382 133.402L143.735 129.57L143.405 129.759L105.547 151.606L90.8054 160.111L90.8054 220.632L40.3306 191.5L40.3306 128.195L40.4678 70.0086L40.4752 65.1243L40.4938 58.3128L36.2523 58.3053L36.2338 64.9575L36.0966 126.091L36.0892 126.091L-12.5577 98.0107L-16.5063 95.7352L-20.4549 98.0107L-69.1018 126.087L-73.3432 128.533L-73.3432 194.139L-69.1018 196.585L-21.2001 224.227L-20.9072 224.398L-71.2225 253.437L-123.818 223.082L-123.818 161.338L-128.059 161.338L-128.059 223.086L-130.328 224.405L-128.059 225.713L-128.06 286.05L-178.534 315.182L-178.534 254.66L-230.97 224.401L-178.534 194.142L-178.534 126.091L-181.715 127.925L-235.371 158.892L-237.492 157.665L-289.027 127.925L-292.208 126.09L-344.804 95.7389L-401.641 128.536L-401.641 194.142L-346.924 225.717L-346.924 410.995L-342.683 410.995L-342.683 291.134L-292.208 320.263L-292.208 383.234L-237.492 414.812L-237.492 472.884L-289.027 443.144L-291.148 446.816L-237.492 477.783L-233.251 480.229L-233.25 417.073L-182.776 446.205L-182.776 509.347L-180.655 510.573L-125.939 478.995L-71.2225 510.573L-69.1018 509.347L-69.1018 446.198L-18.627 417.065L-18.627 480.222L-16.5063 478.995L38.2099 510.573L92.9261 478.995L95.0469 480.222L95.0469 477.435L96.8783 476.379L95.0469 475.322L95.0469 417.065L143.104 444.8L145.522 446.194L145.522 509.347L147.642 510.573L202.359 478.995L257.075 510.573L311.791 478.995L364.242 509.261L366.507 510.57L368.483 509.428L421.223 478.991L423.555 480.34L423.555 475.445L423.344 475.322L423.344 417.065L423.555 417.188L423.555 409.598L423.344 409.72L423.344 351.648L425.925 350.158L473.819 322.516L473.819 380.592L471.828 381.737L442.179 398.847L445.927 401.763L473.815 385.669L475.936 384.442L478.057 385.669L526.251 413.482L478.057 441.295L475.936 442.521L474.027 441.421L474.027 509.469L475.936 510.57L530.652 478.991L585.368 510.57L642.22 477.772L642.22 416.813L636.069 413.27ZM261.78 318.773L309.681 291.13L311.802 289.904L313.923 291.13L361.825 318.773L362.117 318.943L311.802 347.983L261.487 318.943L261.78 318.773ZM149.77 257.106L200.245 227.974L200.245 286.046L149.77 315.178L149.77 257.106ZM95.0543 162.557L107.675 155.275L145.533 133.428L145.533 191.5L95.0579 220.632L95.0579 162.561L95.0543 162.557ZM95.0543 227.974L142.949 255.616L145.529 257.106L145.529 315.178L97.0452 287.195L95.0543 286.046L95.0543 227.974ZM38.2174 195.358L40.338 196.585L88.2398 224.227L88.5327 224.398L38.2174 253.437L-12.098 224.398L-11.8051 224.227L36.0966 196.585L38.2174 195.358ZM90.8128 227.974L90.8128 286.046L88.8218 287.195L40.338 315.178L38.2173 316.405L36.0966 315.178L-14.3782 286.046L-14.3782 227.974L36.0966 257.103L38.2174 258.329L42.9111 255.62L90.8128 227.978L90.8128 227.974ZM36.0966 191.5L34.1057 192.649L-14.3782 220.632L-14.3782 162.561L-11.7977 161.071L36.0966 133.428L36.0966 191.5ZM-66.6808 129.585L-18.6196 101.85L-16.4989 100.623L-14.3782 101.85L33.683 129.585L33.9758 129.756L-16.4989 158.888L-66.9736 129.756L-66.6808 129.585ZM-67.1071 192.649L-69.0981 191.5L-69.0981 133.428L-21.2038 161.071L-18.6233 162.561L-18.6233 220.632L-67.1071 192.649ZM-69.0944 257.106L-66.5139 255.616L-18.6196 227.974L-18.6196 286.046L-20.6106 287.195L-69.0944 315.178L-69.0944 257.106ZM-123.811 227.974L-75.9163 255.616L-73.3359 257.106L-73.3359 315.178L-121.82 287.195L-123.811 286.046L-123.811 227.974ZM-233.247 162.557L-182.772 133.425L-182.772 191.496L-233.247 220.629L-233.247 162.557ZM-233.247 227.974L-182.772 257.106L-182.772 315.178L-233.247 286.046L-233.247 227.974ZM-287.963 133.428L-237.488 162.561L-237.488 220.632L-287.963 191.504L-287.963 133.428ZM-346.921 220.818L-397.395 191.685L-397.395 133.428L-346.921 162.561L-346.921 220.818ZM-344.8 158.888L-395.275 129.756L-344.8 100.627L-294.325 129.756L-344.8 158.888ZM-292.204 133.428L-292.204 191.504L-342.679 220.632L-342.679 162.561L-292.204 133.428ZM-292.204 315.363L-342.679 286.231L-342.679 227.974L-292.204 257.106L-292.204 315.363ZM-340.395 224.394L-290.08 195.354L-239.765 224.394L-290.08 253.434L-340.395 224.394ZM-237.488 227.974L-237.488 286.046L-287.963 315.178L-287.963 257.106L-237.488 227.974ZM-237.488 409.909L-287.963 380.777L-287.963 322.52L-237.488 351.652L-237.488 409.909ZM-233.732 347.034L-235.364 347.979L-285.679 318.94L-235.364 289.9L-185.048 318.94L-233.729 347.031L-233.732 347.034ZM-128.052 475.322L-178.527 504.455L-178.527 446.198L-128.052 417.065L-128.052 475.322ZM-128.052 412.17L-180.648 442.525L-182.768 441.298L-230.963 413.485L-178.527 383.226L-178.527 378.142L-233.243 409.72L-233.243 351.648L-225.468 347.157L-182.768 322.516L-182.768 322.705L-180.648 321.478L-178.527 322.705L-178.527 322.516L-128.052 351.648L-128.052 412.166L-128.052 412.17ZM-126.228 347.809L-133.966 343.339L-176.247 318.94L-125.931 289.9L-75.9089 318.769L-75.616 318.94L-125.931 347.979L-126.228 347.809ZM-73.3359 322.52L-73.3359 380.595L-75.3268 381.74L-123.811 409.724L-123.811 351.652L-121.393 350.258L-73.3359 322.523L-73.3359 322.52ZM-73.3359 504.455L-123.811 475.322L-123.811 417.065L-73.3359 446.198L-73.3359 504.455ZM-71.2152 442.525L-73.3359 441.298L-121.53 413.485L-73.3359 385.672L-71.2152 384.446L-69.0944 385.672L-21.1927 413.315L-20.8998 413.485L-71.2152 442.525ZM-18.6196 409.72L-67.1034 381.737L-69.0944 380.591L-69.0944 322.516L-21.2001 350.158L-18.6196 351.648L-18.6196 409.72ZM-66.8143 318.94L-66.5214 318.769L-16.4989 289.9L33.5236 318.769L33.8165 318.94L-16.4989 347.979L-66.8143 318.94ZM36.0966 322.52L36.0966 380.591L-14.3782 409.724L-14.3782 351.652L36.0966 322.52ZM36.0966 504.455L-12.5504 476.379L-14.3782 475.322L-14.3782 417.065L33.6793 444.8L36.0966 446.194L36.0966 504.455ZM36.0966 441.298L-12.098 413.485L36.0966 385.672L38.2173 384.446L40.338 385.672L88.2398 413.315L88.5326 413.485L38.2173 442.525L36.0966 441.298ZM90.8128 475.322L88.9812 476.379L40.338 504.455L40.338 446.198L42.7554 444.804L90.8128 417.069L90.8128 475.326L90.8128 475.322ZM93.4377 347.687L90.8128 349.199L90.8128 409.72L42.329 381.737L40.338 380.588L40.338 320.255L42.9111 318.765L90.7275 291.175L90.8128 291.123L92.9335 289.896L95.0543 291.123L115.813 303.104L143.249 318.936L95.0543 346.749L93.4377 347.683L93.4377 347.687ZM95.0543 351.652L145.529 322.52L145.529 380.595L95.0543 409.724L95.0543 351.652ZM97.3344 413.485L97.6273 413.315L145.529 385.672L147.65 384.446L149.77 385.672L197.672 413.315L197.965 413.485L147.65 442.525L97.3344 413.485ZM200.245 475.322L198.414 476.379L149.77 504.455L149.77 446.198L152.188 444.804L200.245 417.069L200.245 475.326L200.245 475.322ZM200.245 409.72L151.761 381.737L149.77 380.591L149.77 322.516L197.665 350.158L200.245 351.648L200.245 409.72ZM152.054 318.94L152.347 318.769L200.249 291.127L204.49 288.681L204.49 227.974L252.385 255.616L254.965 257.106L254.965 317.624L202.37 347.979L152.054 318.94ZM254.961 322.52L254.961 380.592L204.487 409.724L204.487 351.652L254.961 322.52ZM254.961 504.455L206.315 476.379L204.487 475.322L204.487 417.065L252.544 444.8L254.961 446.194L254.961 504.455ZM309.678 475.322L259.203 504.455L259.203 446.198L309.678 417.065L309.678 475.322ZM364.394 504.455L364.257 504.377L313.919 475.322L313.919 417.065L364.39 446.198L364.394 446.198L364.394 504.455ZM366.515 442.525L364.394 441.298L313.919 412.166L313.919 409.705L311.798 410.939L309.678 409.705L309.678 412.166L257.082 442.521L206.767 413.482L207.06 413.311L254.961 385.669L259.203 383.223L259.203 322.516L307.105 350.158L311.798 352.867L316.492 350.158L364.394 322.516L364.394 383.223L368.635 385.669L416.537 413.311L416.83 413.482L366.515 442.521L366.515 442.525ZM419.11 475.322L417.282 476.379L368.635 504.455L368.635 446.198L371.053 444.804L419.11 417.069L419.11 475.326L419.11 475.322ZM419.11 409.72L370.623 381.737L368.632 380.588L368.632 322.516L416.526 350.158L419.106 351.648L419.106 409.72L419.11 409.72ZM528.546 475.322L478.071 504.455L478.071 446.198L528.546 417.065L528.546 475.322ZM583.262 504.455L532.788 475.322L532.788 417.065L583.262 446.198L583.262 504.455ZM637.979 475.323L587.504 504.455L587.504 446.198L637.979 417.065L637.979 475.323Z" fill="#292929"/>
</g>
</g>
</svg>
