<?xml version="1.0" encoding="UTF-8"?>
<svg id="Layer_2" data-name="Layer 2" xmlns="http://www.w3.org/2000/svg" viewBox="0 0 121.8 64.89">
  <defs>
    <style>
      .cls-1 {
        fill: #2c8685;
      }
    </style>
  </defs>
  <g id="Layer_1-2" data-name="Layer 1">
    <g>
      <path class="cls-1" d="M6.72,56.12c0,3.51-1.35,4.49-3.51,4.49-1.01,0-1.92-.17-2.63-.4l-.57,4.15c1.01.34,2.57.54,3.78.54,4.96,0,8.07-2.26,8.07-8.74v-14.38h-5.13v14.34Z"/>
      <path class="cls-1" d="M26.16,41.4c-6.68,0-11.07,5.1-11.07,11.91s3.98,11.58,10.7,11.58h.03c6.65,0,11.14-4.49,11.14-11.98,0-6.28-3.81-11.51-10.8-11.51ZM26.02,60.81h-.04c-3.44,0-5.5-3.34-5.5-7.63s1.99-7.7,5.53-7.7,5.47,3.51,5.47,7.59c0,4.46-1.99,7.73-5.47,7.73Z"/>
      <path class="cls-1" d="M56.59,43.97c-2.16-1.65-4.99-2.36-9.35-2.36-2.57,0-5.03.17-6.92.51v22.31c1.25.17,3.17.34,5.84.34,4.46,0,8.13-.94,10.53-2.93,2.16-1.86,3.75-4.86,3.75-9.22,0-4.05-1.48-6.88-3.85-8.64ZM47.25,60.74c-.61,0-1.35,0-1.79-.1v-14.88c.44-.1,1.22-.2,2.33-.2,4.45,0,7.22,2.33,7.22,7.22,0,5.43-3.07,8-7.76,7.96Z"/>
      <path class="cls-1" d="M69.12,41.77l-6.95,22.75h5.33l1.58-5.84h6.55l1.75,5.84h5.53l-7.09-22.75h-6.72ZM69.83,54.83l1.38-4.83c.34-1.32.71-3.04,1.01-4.39h.1c.34,1.32.74,3.04,1.11,4.39l1.42,4.83h-5.03Z"/>
      <path class="cls-1" d="M92.44,47.24c-.68,1.62-1.22,2.94-1.72,4.35h-.07c-.54-1.48-1.05-2.7-1.76-4.35l-2.29-5.47h-5.9l7.19,13.43v9.32h5.13v-9.48l7.49-13.27h-5.77l-2.29,5.47Z"/>
      <path class="cls-1" d="M117.07,41.77v6.61c0,3.44.1,6.51.4,9.52h-.07c-1.05-2.56-2.36-5.4-3.71-7.8l-4.73-8.34h-6.01v22.75h4.72v-6.85c0-3.71-.07-6.92-.23-9.96h.13c1.08,2.67,2.6,5.57,3.95,8.03l4.86,8.78h5.4v-22.75h-4.72Z"/>
      <path class="cls-1" d="M26.65,19.39h16.47c.73-1.78,1.21-3.04,1.45-3.77.85-2.32,1.28-4.22,1.28-5.7,0-2.48-.93-4.81-2.79-7.01l-3.18,4.31c1.46,2,2.22,4.15,2.26,6.44h-15.66l-.06-.12c-.6-2.91-1.69-5.5-3.27-7.78l-3.3,3.89c1.43,2.16,2.35,4.03,2.79,5.61.5,1.7.8,3.68.92,5.94-1.35,1.19-2.97,2.2-4.87,3.03-1.9.83-3.61,1.25-5.11,1.25-2.02,0-3.61-.68-4.77-2.03-1.16-1.36-1.73-3.21-1.73-5.57,0-2,.37-4.74,1.1-8.23-.77,1.74-1.36,3.19-1.78,4.33-1.21,3.49-1.81,6.26-1.81,8.32,0,2.47.81,4.54,2.44,6.21,1.62,1.66,3.63,2.49,6.03,2.49,3.52,0,7.29-1.36,11.31-4.07,1.37-3.94,2.13-6.45,2.29-7.54Z"/>
      <polygon class="cls-1" points="17.84 3.51 14.06 0 11.09 2.73 14.87 6.21 17.84 3.51"/>
      <polygon class="cls-1" points="43.48 30.41 46.47 27.8 42.76 24.26 40.33 26.4 38.01 24.26 34.89 26.93 38.67 30.41 41.16 28.27 43.48 30.41"/>
      <path class="cls-1" d="M63.35,10.39c0-3.9-2.37-6.88-7.1-8.94l-2.2,4.48c2.04.89,3.48,1.91,4.3,3.04.83,1.14,1.31,2.7,1.43,4.68h-9.92l-1.27,5.73h12.14l1.54-3.89c.71-1.86,1.07-3.56,1.07-5.11Z"/>
      <polygon class="cls-1" points="109.16 26.93 105.39 23.46 102.42 26.13 106.19 29.73 109.16 26.93"/>
      <path class="cls-1" d="M105.15,17.94c2.35-2.19,5.22-3.29,8.58-3.29,1.21,0,2.71.19,4.51.56l3.09-4.93-.68-.06c-2.02-.2-3.88-.58-5.58-1.16-3.01-1.01-6.35-2.51-10.04-4.51-1.74-.93-3.08-1.4-4.01-1.4-1.23,0-2.55.71-3.95,2.14l-1.9,1.87c.57-.12.96-.18,1.16-.18,1.19,0,2.75.48,4.69,1.43,1.94.95,3.8,2.16,5.58,3.62-1.01.38-1.96.92-2.85,1.63h-22.01c-.34-2.87-1.17-5.36-2.51-7.47-1.34-2.11-2.73-3.17-4.17-3.17-1.03,0-1.95.43-2.76,1.28-1.37,1.46-2.49,3.18-3.39,5.14-.89,1.96-1.34,3.77-1.34,5.43,0,1.11.35,2.08,1.05,2.91.7.83,1.59,1.33,2.66,1.48.52.08,1.5.12,2.97.12h4.13c-.81,2.16-1.99,3.86-3.52,5.12-1.54,1.26-3.22,1.88-5.06,1.88-1.13,0-2.42-.27-3.89-.8,2.97,3.84,5.25,5.76,6.83,5.76,2.26,0,4.51-2.13,6.74-6.38,1.01-1.9,1.68-3.76,2.02-5.58h20.26c.89,0,1.5-.07,1.81-.21.31-.14.84-.56,1.57-1.25ZM73.72,13.66c-1.5,0-2.25-.6-2.25-1.81,0-.89.33-1.74,1-2.55.66-.81,1.38-1.22,2.15-1.22,1.78,0,2.9,1.86,3.36,5.58h-4.25Z"/>
    </g>
  </g>
</svg>