<?xml version="1.0" encoding="UTF-8" standalone="no"?>
<!-- Created with Inkscape (http://www.inkscape.org/) -->

<svg
   xmlns:dc="http://purl.org/dc/elements/1.1/"
   xmlns:cc="http://creativecommons.org/ns#"
   xmlns:rdf="http://www.w3.org/1999/02/22-rdf-syntax-ns#"
   xmlns:svg="http://www.w3.org/2000/svg"
   xmlns="http://www.w3.org/2000/svg"
   xmlns:sodipodi="http://sodipodi.sourceforge.net/DTD/sodipodi-0.dtd"
   xmlns:inkscape="http://www.inkscape.org/namespaces/inkscape"
   version="1.1"
   id="svg2"
   xml:space="preserve"
   width="4096"
   height="4096"
   viewBox="0 0 4096 4096"
   sodipodi:docname="ubs-logo.svg"
   inkscape:version="0.92.2 (5c3e80d, 2017-08-06)"><metadata
     id="metadata8"><rdf:RDF><cc:Work
         rdf:about=""><dc:format>image/svg+xml</dc:format><dc:type
           rdf:resource="http://purl.org/dc/dcmitype/StillImage" /><dc:title></dc:title></cc:Work></rdf:RDF></metadata><defs
     id="defs6"><clipPath
       clipPathUnits="userSpaceOnUse"
       id="clipPath18"><path
         d="M 0,0 H 697.323 V 1474.016 H 0 Z"
         id="path16"
         inkscape:connector-curvature="0" /></clipPath><clipPath
       clipPathUnits="userSpaceOnUse"
       id="clipPath28"><path
         d="M 0,1474.02 H 697.323 V 0 H 0 Z"
         id="path26"
         inkscape:connector-curvature="0" /></clipPath><clipPath
       clipPathUnits="userSpaceOnUse"
       id="clipPath40"><path
         d="M 0,340.157 H 697.323 V 1474.016 H 0 Z"
         id="path38"
         inkscape:connector-curvature="0" /></clipPath><clipPath
       clipPathUnits="userSpaceOnUse"
       id="clipPath60"><path
         d="M 0,0 H 697.323 V 345.827 H 0 Z"
         id="path58"
         inkscape:connector-curvature="0" /></clipPath><clipPath
       clipPathUnits="userSpaceOnUse"
       id="clipPath78"><path
         d="M 0,0 H 697.323 V 1474.016 H 0 Z"
         id="path76"
         inkscape:connector-curvature="0" /></clipPath><clipPath
       clipPathUnits="userSpaceOnUse"
       id="clipPath40-4"><path
         d="M 0,340.157 H 697.323 V 1474.016 H 0 Z"
         id="path38-0"
         inkscape:connector-curvature="0" /></clipPath></defs><sodipodi:namedview
     pagecolor="#ffffff"
     bordercolor="#666666"
     borderopacity="1"
     objecttolerance="10"
     gridtolerance="10"
     guidetolerance="10"
     inkscape:pageopacity="0"
     inkscape:pageshadow="2"
     inkscape:window-width="1600"
     inkscape:window-height="837"
     id="namedview4"
     showgrid="false"
     inkscape:zoom="0.060039891"
     inkscape:cx="-3695.6193"
     inkscape:cy="2798.7921"
     inkscape:window-x="-8"
     inkscape:window-y="-8"
     inkscape:window-maximized="1"
     inkscape:current-layer="g10" /><g
     id="g10"
     inkscape:groupmode="layer"
     inkscape:label="ubs-logo"
     transform="matrix(1.3333333,0,0,-1.3333333,0,4096)"><g
       transform="matrix(26.5759,0,0,26.5759,241.08833,-37048.446)"
       id="g34"><g
         id="g36"
         clip-path="url(#clipPath40-4)"><g
           id="g42"
           transform="translate(27.5493,1448.4795)"><path
             d="m 0,0 c 0,-0.643 0.676,-1.254 1.352,-1.254 0.643,0 1.254,0.579 1.254,1.222 0,0.096 -0.032,0.193 -0.032,0.322 L 3.7,-0.611 C 3.507,-1.706 2.542,-2.67 1.416,-2.542 1.48,-2.735 1.512,-2.896 1.512,-3.153 c 0,-0.805 -0.708,-1.738 -1.48,-2.028 l -1.126,0.869 c 0.708,0.064 1.287,0.547 1.287,1.32 0,0.74 -0.644,1.286 -1.351,1.286 -0.74,0 -1.288,-0.643 -1.288,-1.415 0,-0.933 1.126,-2.703 3.282,-2.703 0.87,0 1.706,0.258 2.35,0.837 L 2.478,-4.44 c 0.161,0.546 0.482,1.029 0.997,1.255 l 0.708,-0.547 c 0.257,0.482 0.419,1.029 0.419,1.608 0,1.545 -1.191,3.508 -3.09,3.508 C 0.708,1.384 0,0.837 0,0 m -8.012,-5.76 c 0,-0.708 0.578,-1.286 1.255,-1.286 0.482,0 0.675,0.192 1.029,0.482 v -1.449 c -0.354,-0.193 -0.708,-0.289 -1.094,-0.289 -0.772,0 -1.416,0.225 -1.835,0.901 -0.449,-0.676 -1.093,-0.901 -1.865,-0.901 -0.354,0 -0.74,0.096 -1.094,0.289 v 1.449 c 0.322,-0.322 0.578,-0.482 1.029,-0.482 0.708,0 1.254,0.578 1.254,1.286 0,0.676 -0.449,1.287 -1.189,1.287 -1.32,0 -1.867,-1.255 -1.867,-2.413 0,-1.706 1.255,-3.153 2.896,-3.443 v 0.869 c 0.257,0.129 0.547,0.161 0.804,0.161 0.29,0 0.58,-0.032 0.837,-0.161 v -0.869 c 1.513,0.225 2.896,1.834 2.896,3.443 0,1.191 -0.482,2.413 -1.866,2.413 -0.708,0 -1.19,-0.611 -1.19,-1.287 m -9.558,2.768 c 0,-0.773 0.579,-1.256 1.255,-1.32 l -1.126,-0.869 c -0.772,0.29 -1.48,1.223 -1.48,2.028 0,0.257 0.065,0.418 0.129,0.611 -0.097,0 -0.161,-0.032 -0.226,-0.032 -1.029,0 -1.898,0.965 -2.091,1.963 l 1.159,0.901 c -0.033,-0.129 -0.033,-0.226 -0.033,-0.322 0,-0.643 0.611,-1.222 1.255,-1.222 0.676,0 1.319,0.579 1.319,1.254 0,0.837 -0.643,1.384 -1.447,1.384 -1.577,0 -3.123,-1.512 -3.123,-3.508 0,-0.579 0.129,-1.126 0.387,-1.608 l 0.708,0.547 c 0.483,-0.226 0.869,-0.709 0.998,-1.255 l -0.708,-0.547 c 0.676,-0.579 1.512,-0.837 2.381,-0.837 1.802,0 3.25,1.448 3.25,2.736 0,0.739 -0.515,1.382 -1.287,1.382 -0.708,0 -1.32,-0.546 -1.32,-1.286 M 0.644,10.169 0.064,9.686 0.676,7.691 -1.158,8.688 -1.77,8.206 0.257,7.111 -1.898,5.374 l -0.581,0.772 0.774,0.612 -0.58,0.675 -0.772,-0.611 -0.579,0.74 0.772,0.611 -0.579,0.741 -3.958,-3.282 3.765,-3.025 0.675,0.836 c 0.482,-0.032 0.837,-0.386 1.03,-0.836 L -2.607,1.77 -2.188,1.449 c 0.933,0.836 2.155,1.383 3.411,1.383 2.638,0 4.697,-2.156 4.697,-4.794 0,-0.869 -0.225,-1.803 -0.707,-2.575 L 5.92,-5.084 C 5.889,-5.599 5.406,-6.146 4.923,-6.275 l -0.675,0.547 c -0.934,-0.9 -2.157,-1.383 -3.444,-1.383 -2.638,0 -4.698,2.091 -4.698,4.762 0,0.869 0.258,1.77 0.644,2.51 L -3.636,0.515 -4.313,-0.386 C -4.795,-0.321 -5.213,0 -5.342,0.515 l 0.675,0.804 -3.185,2.639 v -4.183 l 1.062,-0.032 c 0.129,-0.161 0.226,-0.386 0.226,-0.643 0,-0.226 -0.097,-0.483 -0.193,-0.677 h -1.095 v -0.515 c 2.317,-0.386 4.248,-2.348 4.248,-4.73 0,-2.477 -1.898,-4.44 -4.248,-4.826 v -0.837 c -0.225,-0.129 -0.515,-0.225 -0.772,-0.225 -0.29,0 -0.612,0.096 -0.869,0.225 v 0.837 c -2.349,0.386 -4.183,2.349 -4.183,4.826 0,2.382 1.834,4.344 4.183,4.698 v 0.547 h -1.094 c -0.128,0.194 -0.193,0.451 -0.193,0.677 0,0.257 0.065,0.482 0.193,0.675 h 1.094 v 4.183 l -3.218,-2.639 0.709,-0.804 C -12.164,0 -12.582,-0.321 -13.065,-0.386 l -0.675,0.901 -0.419,-0.354 c 0.451,-0.74 0.676,-1.641 0.676,-2.51 0,-2.671 -2.059,-4.762 -4.698,-4.762 -1.255,0 -2.509,0.483 -3.411,1.383 L -22.3,-6.275 c -0.45,0.129 -0.933,0.676 -0.997,1.191 l 0.675,0.547 c -0.418,0.772 -0.675,1.706 -0.675,2.575 0,2.638 2.059,4.794 4.697,4.794 1.287,0 2.511,-0.547 3.444,-1.383 l 0.386,0.289 -0.675,0.869 c 0.16,0.45 0.579,0.772 1.061,0.836 l 0.676,-0.836 3.765,3.025 -3.958,3.282 -0.579,-0.741 0.772,-0.611 -0.58,-0.74 -0.772,0.611 -0.579,-0.675 0.741,-0.612 -0.58,-0.772 -2.124,1.737 1.996,1.095 -0.58,0.482 -1.835,-0.997 0.612,1.995 -0.579,0.483 -0.676,-2.189 -2.155,1.738 0.579,0.708 0.74,-0.611 0.611,0.707 -0.772,0.677 0.579,0.675 0.772,-0.579 0.547,0.675 -1.673,1.32 c 0.161,0.547 0.515,0.998 1.03,1.32 l 8.913,-7.273 v 4.858 h -0.901 v -0.932 h -0.9 v 0.932 h -0.934 v -0.932 h -0.933 v 2.735 l 2.123,-0.901 v 0.772 l -1.962,0.805 1.962,0.772 v 0.74 l -2.123,-0.836 v 2.767 h 0.933 v -0.998 h 0.934 v 0.998 h 0.9 v -0.998 h 0.901 v 2.189 c 0.257,0.096 0.547,0.16 0.836,0.16 0.258,0 0.548,-0.064 0.805,-0.16 V 7.337 L 1.062,14.61 C 1.544,14.288 1.898,13.837 2.091,13.29 L 0.386,11.97 0.965,11.295 1.737,11.874 2.317,11.199 1.544,10.522 2.123,9.815 2.896,10.426 3.475,9.718 1.319,7.98 Z"
             style="fill:#231f20;fill-opacity:1;fill-rule:nonzero;stroke:none"
             id="path44"
             inkscape:connector-curvature="0" /></g><g
           id="g46"
           transform="translate(86.3067,1462.0815)"><path
             d="m 0,0 c -2.29,0 -3.756,-1.355 -3.756,-3.71 0,-2.134 2.311,-3.157 4.556,-3.913 1.333,-0.466 3.022,-1.088 4.178,-2.2 1.267,-1.199 1.956,-2.8 1.911,-4.822 -0.088,-3.778 -2.734,-6.334 -7.401,-6.356 -1.755,0 -4.488,0.4 -6.133,1.356 l -0.178,5.688 h 1.378 c 0.111,-3.821 1.911,-5.822 5.067,-5.822 2.534,0 3.934,1.689 3.934,4.267 0,2.222 -1.845,3.179 -4.645,4.112 -0.912,0.311 -2.712,0.978 -3.978,2.222 -1.134,1.133 -1.666,2.555 -1.666,4.068 0,4.422 3.154,6.333 7.066,6.333 1.556,0 3.889,-0.556 5.245,-1.334 L 5.711,-5.044 H 4.333 C 4.045,-1.533 2.511,0 0,0 m -13.69,-14.667 c 0,2.889 -1.245,4.822 -4.156,4.822 h -2.423 v -9.645 h 1.956 c 3.089,0 4.623,1.823 4.623,4.823 m -0.778,10.312 c 0,2.022 -1.045,4.066 -3.333,4.066 h -2.468 v -8.333 h 2.201 c 2.422,0 3.6,2.044 3.6,4.267 m -9.668,-15.135 v 19.201 h -2.266 v 1.246 h 9.712 c 4.133,0 6.178,-2.334 6.178,-5.067 0,-2.912 -2.645,-4.557 -5.001,-5.046 4.579,-0.422 5.824,-3.356 5.824,-5.511 0,-4.4 -3.756,-6.067 -7.447,-6.067 h -9.422 v 1.244 z m -5.956,5.978 c 0,-6.667 -3.644,-7.467 -7.289,-7.467 -6.267,0 -7.6,3.201 -7.6,7.778 v 12.912 h -2.312 v 1.246 h 8.756 v -1.246 h -2.489 v -12.533 c 0,-4.423 1.156,-6.624 4.334,-6.624 3.244,0 4.822,1.601 4.822,6.201 v 12.956 h -2.333 v 1.246 h 6.223 v -1.246 h -2.112 z"
             style="fill:#ed1c24;fill-opacity:1;fill-rule:nonzero;stroke:none"
             id="path48"
             inkscape:connector-curvature="0" /></g></g></g></g></svg>